<svg width="101" height="23" viewBox="0 0 101 23" fill="none" xmlns="http://www.w3.org/2000/svg">
<path d="M98.6472 0.8059C99.4141 0.765535 100.181 0.765535 100.948 0.785718C98.6472 5.58915 96.4271 10.4329 94.1869 15.2566H92.3099C91.2806 12.8347 90.0697 10.4733 89 8.05141C89.7467 8.03123 90.4935 8.03123 91.2402 8.05141C91.8861 9.54491 92.653 10.9779 93.2383 12.4714C95.0345 8.57616 96.8913 4.70112 98.6472 0.8059Z" fill="#FF0000"/>
<path d="M39.8402 2C41.3135 2.02018 42.807 2.02018 44.2804 2C44.2602 3.31186 44.2602 4.6439 44.2804 5.95576C42.807 5.93558 41.3135 5.95576 39.82 5.93558C39.8604 4.62372 39.82 3.31186 39.8402 2V2ZM17.4982 7.65108C20.5256 5.93558 24.9254 6.52087 26.9638 9.48769C28.2151 11.2436 28.5784 13.4636 28.5582 15.5626C25.0868 15.5828 21.6154 15.5626 18.144 15.5828C18.3055 16.6525 18.7697 17.7827 19.7586 18.3478C21.1714 19.1753 23.3915 18.9331 24.0979 17.2983C25.5308 17.2579 26.9436 17.2579 28.3766 17.2983C27.9326 18.9331 26.7418 20.3257 25.2483 21.0926C23.6337 21.9806 21.6962 22.1421 19.8999 21.8393C18.0028 21.5366 16.2469 20.4669 15.1772 18.8725C14.0066 17.1772 13.7039 15.0177 13.9663 13.0196C14.2286 10.8197 15.5405 8.74094 17.4982 7.65108V7.65108ZM19.8596 10.1739C18.8706 10.6381 18.3862 11.7078 18.1642 12.7371H24.0979C23.9768 11.9499 23.6942 11.1225 23.0888 10.5775C22.2411 9.75006 20.8889 9.72988 19.8596 10.1739V10.1739ZM64.039 6.88415C66.4205 6.46032 69.0644 6.96488 70.901 8.61984C74.0293 11.405 74.1706 16.7937 71.2643 19.7807C68.9635 22.1824 65.1087 22.6265 62.162 21.2742C59.8814 20.2449 58.3274 17.9239 58.065 15.4617C57.9641 14.0287 58.0246 12.5554 58.6099 11.2234C59.4979 8.94276 61.6575 7.2878 64.039 6.88415V6.88415ZM64.5436 10.1739C63.2923 10.6179 62.707 11.9701 62.5253 13.2013C62.384 14.7351 62.4042 16.4708 63.3932 17.7423C64.4628 19.1349 66.8242 19.0945 67.8939 17.7221C68.7819 16.6121 68.9232 15.0984 68.8223 13.726C68.7617 12.5151 68.3379 11.2234 67.3288 10.4766C66.5215 9.9317 65.4518 9.85097 64.5436 10.1739V10.1739ZM79.8823 7.71163C81.3556 6.56123 83.4546 6.44014 85.1499 7.12634C86.3608 7.65108 87.269 8.72075 87.6929 9.95188C88.1773 11.2234 88.036 12.5958 88.036 13.9278C88.036 16.4708 88.0158 19.0138 88.0562 21.5366C86.5828 21.5568 85.1095 21.5366 83.616 21.5568V12.838C83.616 12.0912 83.3335 11.2839 82.7078 10.8197C81.7592 10.1739 80.3868 10.295 79.5795 11.1023C78.9337 11.7481 78.6511 12.6765 78.6713 13.5645V21.5568C77.2182 21.5366 75.7448 21.5568 74.2917 21.5366C74.2917 16.7332 74.3119 11.9298 74.2917 7.12634C75.7247 7.14652 77.1374 7.10616 78.5704 7.14652C78.5502 7.81254 78.5502 8.47856 78.53 9.14459C78.974 8.66021 79.3373 8.11528 79.8823 7.71163V7.71163ZM0 7.16671H4.60161C5.53 10.2546 6.51894 13.3425 7.38679 16.4506C8.45646 13.4031 9.26376 10.2546 10.2729 7.16671C11.7462 7.14652 13.2397 7.16671 14.713 7.14652C13.0177 11.9499 11.3627 16.7534 9.68759 21.5568C8.15372 21.5568 6.61985 21.5366 5.08599 21.577C3.33011 16.7937 1.77606 11.9298 0 7.16671ZM29.5673 7.14652H33.8057C33.7855 7.95382 33.8057 8.76112 33.7653 9.56842C34.1286 9.16477 34.3909 8.66021 34.7744 8.27674C35.723 7.22725 37.277 6.80342 38.6494 7.16671C38.6293 8.4382 38.6293 9.70969 38.6494 10.961C37.5596 10.8399 36.3486 10.8803 35.4203 11.5463C34.4313 12.2325 33.9873 13.504 34.0075 14.6746C33.9873 16.9754 34.0075 19.256 34.0075 21.5568C32.5342 21.5568 31.0407 21.5366 29.5673 21.577C29.5875 16.7534 29.5875 11.9499 29.5673 7.14652V7.14652ZM39.8402 7.16671C41.3337 7.14652 42.807 7.16671 44.3005 7.14652C44.2804 11.9499 44.3005 16.7534 44.3005 21.5568C42.8272 21.5366 41.3337 21.5568 39.8402 21.5568V7.16671ZM45.4913 7.14652C49.5076 7.16671 53.5239 7.14652 57.5201 7.16671C57.4797 8.27674 57.5201 9.36659 57.4999 10.4766C57.3586 10.7592 57.1164 10.961 56.9348 11.2032C54.8762 13.4838 52.8579 15.825 50.7589 18.0854C53.1203 18.1258 55.4816 18.0854 57.843 18.1056V21.577C53.7258 21.5568 49.6085 21.5568 45.4913 21.577V18.2267C47.6508 15.8048 49.7902 13.4031 51.9699 11.0014C52.0304 10.8803 52.2928 10.7592 52.1515 10.5977C49.9315 10.6583 47.7114 10.5977 45.4913 10.6381V7.14652V7.14652Z" fill="black"/>
</svg>
